<svg xmlns="http://www.w3.org/2000/svg" viewBox="0 0 64 64" width="32" height="32">
  <defs>
    <radialGradient id="g" cx="50%" cy="50%" r="50%">
      <stop offset="0%" stop-color="#3d8bff" stop-opacity="0.9"/>
      <stop offset="100%" stop-color="#22d4f5" stop-opacity="0.6"/>
    </radialGradient>
  </defs>
  <polygon points="32,6 49,16.5 49,37.5 32,48 15,37.5 15,16.5" fill="none" stroke="url(#g)" stroke-width="2" opacity="0.9"/>
  <polygon points="32,14 43,20.5 43,33.5 32,40 21,33.5 21,20.5" fill="none" stroke="#3d8bff" stroke-width="1.5" opacity="0.6"/>
  <polygon points="32,22 38,25.5 38,32.5 32,36 26,32.5 26,25.5" fill="rgba(61,139,255,0.15)"/>
  <circle cx="32" cy="29" r="3" fill="#3d8bff"/>
  <circle cx="32" cy="3" r="2.5" fill="#22d4f5" opacity="0.8"/>
  <circle cx="55" cy="16.5" r="2.5" fill="#22d4f5" opacity="0.8"/>
  <circle cx="55" cy="43.5" r="2.5" fill="#22d4f5" opacity="0.8"/>
  <circle cx="32" cy="57" r="2.5" fill="#22d4f5" opacity="0.8"/>
  <circle cx="9" cy="43.5" r="2.5" fill="#22d4f5" opacity="0.8"/>
  <circle cx="9" cy="16.5" r="2.5" fill="#22d4f5" opacity="0.8"/>
  <line x1="32" y1="5" x2="32" y2="14" stroke="#3d8bff" stroke-width="1" opacity="0.35"/>
  <line x1="53" y1="18" x2="47" y2="21" stroke="#3d8bff" stroke-width="1" opacity="0.35"/>
  <line x1="53" y1="42" x2="47" y2="37" stroke="#3d8bff" stroke-width="1" opacity="0.35"/>
  <line x1="32" y1="55" x2="32" y2="42" stroke="#3d8bff" stroke-width="1" opacity="0.35"/>
  <line x1="11" y1="42" x2="17" y2="37" stroke="#3d8bff" stroke-width="1" opacity="0.35"/>
  <line x1="11" y1="18" x2="17" y2="21" stroke="#3d8bff" stroke-width="1" opacity="0.35"/>
</svg>